<?xml version="1.0" encoding="UTF-8"?>
<svg xmlns="http://www.w3.org/2000/svg" version="1.1" viewBox="0 0 595.3 841.9">
  <defs>
    <style>
      .cls-1 {
        fill: #54614b;
      }
    </style>
  </defs>
  <!-- Generator: Adobe Illustrator 28.6.0, SVG Export Plug-In . SVG Version: 1.2.0 Build 709)  -->
  <g>
    <g id="Layer_1">
      <g id="Layer_1-2" data-name="Layer_1">
        <path class="cls-1" d="M460.9,526.3c-5,1.5-10,2.9-15,4-2.7.6-5.5,1.1-8.2,1.6-1.1.2-2.3.4-3.4.6-6.1.9,5.4-.6.5,0-10.4,1.1-20.8,1.5-31.3,1-2.2-.1-4.5-.3-6.7-.5-1.3-.1-2.7-.3-4-.4-5.1-.5,6.4,1,1.3.2s-10.5-1.8-15.7-3c-4.7-1.1-9.4-2.5-14.1-4-2.1-.7-4.2-1.4-6.3-2.2-1.2-.5-2.5-.9-3.7-1.4-.8-.3-1.6-.7-2.5-1l3.5,1.5c-9.2-4.4-18.3-8.7-26.9-14.2-4.1-2.6-7.9-5.6-12-8.4,7,4.8-.6-.5-2.2-1.9-2-1.7-4-3.5-6-5.3-3.6-3.3-7.1-6.8-10.4-10.4-1.5-1.6-3-3.3-4.5-5-.9-1-1.7-2.1-2.6-3.1-4.2-5.2,2.4,3.2-.2-.2-6.1-8.2-11.6-16.9-16.3-26-1.2-2.3-2.3-4.5-3.4-6.9-.6-1.2-1-2.6-1.7-3.8,3,5.6,1.5,3.7.9,2.1-2.1-5.3-4-10.6-5.7-16-1.5-5-2.8-10-3.9-15-.6-2.7-1.1-5.5-1.5-8.2-.1-.9-.3-1.8-.4-2.7-.7-4.5.8,6.7,0-.2-1.1-10.4-1.4-20.9-.7-31.3.1-2.2.3-4.5.6-6.7.1-1.3.4-2.7.5-4-.6,8-.5,3.2-.1,1.3.8-5.1,1.8-10.1,3-15,1.1-4.5,2.4-9,3.8-13.4.8-2.5,1.7-5,2.6-7.5.5-1.2,1-2.5,1.4-3.7,1.6-4.2-2.5,5.5-.5,1.1,4.2-9.3,8.9-18.3,14.4-26.8,1.3-2,2.7-4,4.1-6,1.2-1.7,6.8-8.1,1.2-1.9,3.5-4,6.7-8.2,10.4-12.1,3.4-3.6,6.9-7,10.5-10.3,1.7-1.5,3.4-3,5.1-4.4,1-.9,2.1-1.7,3.1-2.6,3.6-3-5,3.7-.3.2,9.3-7,19.3-13,29.8-18.1,1.2-.6,2.5-1.2,3.8-1.8.9-.4,1.7-.8,2.5-1.1l-3.4,1.4c3.1-1.1,6.1-2.4,9.2-3.5,6.8-2.4,13.7-4.4,20.7-6,4-.9,8-1.6,12.1-2.3,6.4-1.1-5.6.5.8-.1,1.9-.2,3.7-.4,5.6-.6,8-.7,16-.8,24-.4,3.7.2,7.3.6,10.9.9,6.3.6-5.6-1,.6,0,2.4.4,4.8.8,7.2,1.2,7.7,1.5,15.3,3.5,22.7,6,11.8,3.9,24.9-3.6,29.5-14.5,5.2-12.3-.1-23.6-10.2-31.2-41.9-31.6-92.5-49.8-144.6-54.3-50.9-4.4-102.5,6.7-148,29.6-76.4,38.3-132.9,114.2-147.4,198.4-7.6,43.9-5.4,89.1,7.9,131.8,13.3,42.7,36.7,82.1,68.2,114,30.3,30.6,67.6,53.5,108.2,67.6,40.6,14.1,86.8,17.8,130.6,11.7,90.6-12.7,172.2-73.1,210.7-156.1,5.1-11,9.7-22.2,13.5-33.7,3.9-11.8-3.6-24.9-14.5-29.5-12.3-5.2-23.6.1-31.2,10.2-2.1,2.8.3-1,1.1-1.4-.9.5-1.8,2.2-2.4,3-1.3,1.6-2.6,3.1-4,4.7-2.9,3.3-5.9,6.4-9,9.5s-6.4,6-9.7,8.8c-1.8,1.5-3.7,2.9-5.4,4.4.9-.8,4-3,1.4-1.1-1.1.8-2.1,1.5-3.2,2.3-7.3,5.1-15,9.8-22.9,13.8-1.9,1-3.8,1.9-5.8,2.8-.3.2-3.6,1.3-3.7,1.6,0-.3,5.2-2.1,1.5-.7-4.6,1.8-9.1,3.4-13.8,4.9-12.5,3.9-21.7,17.6-17.5,30.8,4,12.5,17.4,21.7,30.8,17.5,20.5-6.5,40.4-15.8,57.9-28.4,18.6-13.4,34-28.9,47.9-47.1-15.2-6.4-30.5-12.8-45.7-19.3-1.6,5-3.4,9.9-5.3,14.7-.3.9-.7,1.8-1.1,2.6-2,4.9,2.4-5.5.3-.7-1.2,2.6-2.3,5.2-3.5,7.7-4.3,9-9.1,17.7-14.4,26.1-2.8,4.4-5.7,8.7-8.7,13-1.4,1.9-2.9,3.7-4.2,5.7,3.5-5.3,2.3-3,1.3-1.7-1.2,1.5-2.4,3-3.6,4.4-6.4,7.7-13.2,15-20.4,21.9-3.6,3.5-7.4,6.8-11.2,10.1-2,1.7-4.1,3.4-6.1,5-1.2,1-3.7,2.3,1.6-1.2-1.6,1.1-3.1,2.3-4.6,3.5-8.3,6-16.9,11.5-25.8,16.5-4.5,2.5-9.1,4.9-13.8,7.1-2.5,1.2-5,2.3-7.5,3.4-.9.4-1.8.8-2.8,1.2,7.2-3.2.6-.3-1,.3-9.6,3.8-19.5,7-29.5,9.5-4.5,1.2-9.1,2.2-13.7,3.1-2.5.5-5,1-7.6,1.4-1.1.2-2.3.4-3.4.6-.9.1-7.1,1-2.2.3s0,0-.8,0c-1.4.2-2.8.3-4.1.4-2.3.2-4.6.4-6.9.6-5,.3-10,.6-15,.6-9.7.1-19.4-.3-29.1-1.4-2.1-.2-10.9-1.8-2-.2-2.2-.4-4.4-.7-6.6-1-4.8-.8-9.7-1.8-14.5-2.9-9.1-2.1-18.1-4.7-26.9-7.7-4.6-1.6-9.1-3.6-13.7-5.2.2,0,6,2.6,2.3,1-1.2-.5-2.4-1.1-3.6-1.6-2.4-1.1-4.8-2.2-7.2-3.4-8.4-4.1-16.5-8.6-24.4-13.6-4.1-2.6-8.2-5.3-12.1-8.2-1.8-1.3-3.6-2.6-5.4-4-3.2-2.4,1.7,1.3,1.9,1.5-1.3-1.2-2.8-2.2-4.2-3.3-7.2-5.9-14.2-12.2-20.7-18.9-3.3-3.4-6.5-6.8-9.6-10.3-1.6-1.9-3.2-3.7-4.8-5.7-1.4-1.7-6.7-9.2-2-2.3-11.3-16.3-22-32.5-30.1-50.7-.4-.9-.7-1.7-1.1-2.6,3.2,7,1,2.4.3.8-.9-2.2-1.7-4.4-2.6-6.6-1.8-4.9-3.5-9.9-5-14.9-3-9.7-5.3-19.6-7.1-29.5-.4-2.5-.9-5-1.2-7.6-.1-.9-.3-1.8-.4-2.8,1.2,8,.4,2.9.2,1.1-.6-5-1-10-1.3-15.1-.5-9.7-.5-19.5.1-29.3.3-4.7.7-9.4,1.3-14.1.1-.9.2-1.8.3-2.7-.8,8.1-.4,3.1-.2,1.3.4-2.6.8-5.3,1.3-7.9,1.7-9.2,3.9-18.3,6.6-27.3,1.4-4.7,2.9-9.3,4.6-13.9.8-2.1,1.6-4.2,2.4-6.2.4-1,.8-2,1.2-3.1.7-1.8.3-.8-1.2,2.9.3-.8.7-1.6,1.1-2.4,3.7-8.5,7.9-16.8,12.6-24.9s10.2-16.6,16-24.5c.5-.7,1.1-1.4,1.6-2.1,3-4-3.8,4.8-.6.8,1.4-1.7,2.8-3.5,4.2-5.2,3.1-3.8,6.4-7.4,9.7-11,6.7-7.2,13.9-14,21.4-20.3,1.7-1.4,3.5-2.9,5.2-4.3.6-.5,4.2-3.3.7-.6s.1,0,.7-.5c4-3,8.1-5.9,12.2-8.6,8.4-5.6,17.2-10.6,26.2-15.1,4.2-2.1,8.5-3.8,12.7-5.9-7.3,3.8,0,0,1.8-.7,2.6-1,5.3-2,8-3,11.3-4,22.9-7.2,34.6-9.6,2.8-.6,5.6-1.1,8.4-1.6,1.1-.2,2.2-.4,3.4-.5l1.7-.2c2.8-.4,2.2-.3-1.6.2.7-.8,7.3-.8,8.4-.9,3.3-.3,6.7-.6,10-.7,11.9-.6,23.8-.4,35.7.6,1.9.2,7.5,1.8,9,1-.3.1-6.4-.9-1.8-.2,1.6.2,3.2.5,4.9.8,5.9,1,11.8,2.2,17.6,3.6,11.4,2.7,22.5,6.2,33.4,10.5,1.3.5,2.5,1,3.8,1.5,5.4,2.1-5.2-2.4,0,0,2.5,1.1,4.9,2.2,7.4,3.4,5.4,2.6,10.6,5.3,15.8,8.2,9.9,5.6,19.4,11.9,28.5,18.8l19.3-45.7c-56.8-18.7-121.2-11.1-172.1,20.4-41,25.4-71.6,64.6-87.2,110.2-15.4,44.9-14.2,96.5,3.7,140.5,18.3,45,50.7,83.1,93.8,106.2,48.4,25.9,105.9,31.8,158.5,15.7,12.5-3.8,21.7-17.6,17.5-30.8-4.1-12.6-17.4-21.6-30.8-17.5h0Z"/>
      </g>
    </g>
  </g>
</svg>