<?xml version="1.0" encoding="UTF-8"?>
<svg xmlns="http://www.w3.org/2000/svg" version="1.1" viewBox="0 0 595.3 841.9">
  <defs>
    <style>
      .cls-1 {
        fill: #bed3a5;
      }
    </style>
  </defs>
  <!-- Generator: Adobe Illustrator 28.6.0, SVG Export Plug-In . SVG Version: 1.2.0 Build 709)  -->
  <g>
    <g id="Layer_1">
      <g>
        <rect class="cls-1" x="327.7" y="563.1" width="47.1" height="110.4" rx="22.3" ry="22.3" transform="translate(-161.9 126) rotate(-16.6)"/>
        <rect class="cls-1" x="179.5" y="594.4" width="110.4" height="47.1" rx="22.3" ry="22.3" transform="translate(-424.1 671.6) rotate(-73.9)"/>
        <rect class="cls-1" x="81.6" y="531" width="110.4" height="47.1" rx="22.3" ry="22.3" transform="translate(-331 226.9) rotate(-41.1)"/>
        <rect class="cls-1" x="33.6" y="424.9" width="110.4" height="47.1" rx="22.3" ry="22.3" transform="translate(-64.6 17.8) rotate(-8.4)"/>
        <rect class="cls-1" x="82.2" y="277.9" width="47.1" height="110.4" rx="22.3" ry="22.3" transform="translate(-241.4 292.3) rotate(-65.7)"/>
        <rect class="cls-1" x="158.8" y="190.1" width="47.1" height="110.4" rx="22.3" ry="22.3" transform="translate(-104.1 138.6) rotate(-32.9)"/>
        <rect class="cls-1" x="270.7" y="157.6" width="47.1" height="110.4" rx="22.3" ry="22.3" transform="translate(-.8 1.1) rotate(-.2)"/>
        <rect class="cls-1" x="350.8" y="222.4" width="110.4" height="47.1" rx="22.3" ry="22.3" transform="translate(-19.6 456.2) rotate(-57.5)"/>
        <rect class="cls-1" x="426.9" y="310.8" width="110.4" height="47.1" rx="22.3" ry="22.3" transform="translate(-95.7 232.7) rotate(-24.8)"/>
        <rect class="cls-1" x="474.7" y="394.6" width="47.1" height="110.4" rx="22.3" ry="22.3" transform="translate(-16.2 881) rotate(-82)"/>
        <rect class="cls-1" x="425.9" y="500.4" width="47.1" height="110.4" rx="22.3" ry="22.3" transform="translate(-264.9 534.2) rotate(-49.3)"/>
      </g>
      <path class="cls-1" d="M372.3,419.8c0,2.8-.1,5.6-.3,8.4,0,1.1-.2,2.3-.3,3.4-.3,3.4,1.1-6.8.2-1.9-1,5.3-2.1,10.6-3.8,15.7-.7,2.1-1.7,4.1-2.3,6.3,1.8-6.7,1.4-3.1.4-1.1-.5,1.2-1.1,2.4-1.7,3.6-2.4,4.7-5.1,9.2-8.2,13.5-.5.7-1.1,1.4-1.5,2.1,3.9-6.2,1.9-2.5.6-1-1.5,1.8-3.1,3.6-4.8,5.3s-3.4,3.4-5.1,5-8.9,6.4-2,1.9c-4,2.6-7.8,5.5-12.1,7.9-2.1,1.2-4.3,2.3-6.5,3.3-1,.5-2,.9-3,1.4,7.2-3.6,1.7-.8-.2,0-4.6,1.6-9.4,3-14.2,3.9-2.4.5-9.8.6-1.4.4-3,0-6,.6-9,.7-4.9.2-9.8,0-14.6-.5-5.2-.5,6.3,1.1,1.2.2-1.3-.2-2.7-.5-4-.7-2.6-.5-5.3-1.2-7.9-1.9-2.4-.7-4.7-1.4-7-2.3-1-.4-2.1-.9-3.1-1.2,6.8,1.9,3.1,1.4,1.1.4-4.8-2.2-9.4-4.8-13.8-7.7-1.8-1.2-3.5-2.6-5.3-3.8,6.9,4.5.2,0-1.5-1.5-3.7-3.3-7.2-6.9-10.4-10.8-1.2-1.5-3.3-5.2.6,1-.7-1.1-1.6-2.1-2.3-3.2-1.2-1.8-2.4-3.6-3.6-5.5-1.4-2.2-2.6-4.5-3.8-6.9-.4-.8-.8-1.6-1.2-2.4-1-2.1-2.1-7.5-.1,0-1.3-4.7-3.3-9.2-4.5-14-.5-2.2-1-4.4-1.4-6.6s0-6.2.1,1.2c0-1.6-.4-3.2-.5-4.8-.4-4.9-.4-9.8,0-14.7,0-1.4.2-2.8.4-4.1.4-5.2-1.1,6.3-.2,1.2.5-2.7,1-5.3,1.6-8,1.2-4.8,3.2-9.3,4.5-14-1.9,6.8-1.4,3.1-.4,1.1.4-.8.8-1.6,1.1-2.4,1.4-2.8,2.8-5.5,4.4-8.1,1.1-1.9,2.3-3.7,3.6-5.5.8-1.1,1.6-2.1,2.3-3.2-4,6.2-1.9,2.5-.6,1,3.1-3.7,6.4-7.1,10-10.3,1.7-1.5,9-6.5,2-1.9,1.8-1.2,3.5-2.6,5.3-3.8,4.4-2.9,9-5.5,13.8-7.7,2-.9,5.6-1.4-1.1.4.8-.2,1.7-.7,2.5-1,2.5-.9,5-1.8,7.6-2.5,2.2-.6,4.3-1.2,6.5-1.6,1.3-.3,2.7-.5,4-.8,6.8-1.2-4.4.3.1,0s9.3-.7,13.9-.5c2.8,0,5.5.3,8.3.5,5.2.4-6.3-1.1-1.2-.2,1.3.2,2.7.5,4,.7,5.7,1.2,11.2,2.9,16.7,4.9,4.7,1.7-5.6-2.6-1.1-.5,1.2.6,2.4,1.1,3.6,1.7,2.6,1.3,5.1,2.6,7.5,4.1s4.8,3,7.1,4.7c1.7,1.2,4.2,4.2-.9-.8.9.9,2,1.7,3,2.5,4.3,3.7,8.3,7.7,11.9,12.1,1.3,1.5,3.3,5.2-.6-1,.7,1.1,1.6,2.1,2.3,3.2,1.6,2.3,3.2,4.7,4.6,7.2s2.8,5,4,7.6c.6,1.2,1,2.5,1.6,3.6l-1.5-3.5c.3.8.6,1.6,1,2.5,2,5.5,3.6,11.1,4.7,16.8.2,1.3.3,2.7.7,4l-.5-3.9c.1.9.2,1.8.3,2.7.3,3.2.4,6.5.5,9.8,0,13.1,11.4,25.6,25,25s25.1-11,25-25c-.2-25.7-7.7-52-22.8-73-16.1-22.4-37.3-38.8-63.2-48.4-48.6-18-107.9-2.1-140.7,38.1-17.8,21.7-28.1,46.9-30.4,74.9-2.1,25.8,4.7,52.8,18.1,74.8s32.5,39.7,55.4,49.9c26.1,11.7,53.9,15.1,82,9.4,58.8-11.8,101.1-66.6,101.5-125.8,0-13.1-11.6-25.6-25-25s-24.9,11-25,25h0Z"/>
    </g>
  </g>
</svg>